<svg xmlns="http://www.w3.org/2000/svg" width="16" height="16" viewBox="0 0 128 128">
  <rect width="128" height="128" rx="16" fill="#0d1117"/>
  <path d="M40 32 C28 32 20 42 20 54 L20 74 C20 76 22 78 24 78 L32 78 C34 78 36 76 36 74 L36 58 C36 50 42 46 48 46 L48 78 C48 80 50 82 52 82 L60 82 C62 82 64 80 64 78 L64 54 C64 42 54 32 40 32 Z" fill="#6366f1"/>
  <path d="M96 32 C84 32 76 42 76 54 L76 74 C76 76 78 78 80 78 L88 78 C90 78 92 76 92 74 L92 58 C92 50 98 46 104 46 L104 78 C104 80 106 82 108 82 L116 82 C118 82 120 80 120 78 L120 54 C120 42 110 32 96 32 Z" fill="#6366f1"/>
</svg>
